<?xml version="1.0" standalone="no"?><!DOCTYPE svg PUBLIC "-//W3C//DTD SVG 1.1//EN" "http://www.w3.org/Graphics/SVG/1.1/DTD/svg11.dtd"><svg t="1565534568850" class="icon" viewBox="0 0 1024 1024" version="1.1" xmlns="http://www.w3.org/2000/svg" p-id="8491" xmlns:xlink="http://www.w3.org/1999/xlink" width="200" height="200"><defs><style type="text/css"></style></defs><path d="M565.248 506.368c-5.12 5.12-11.264 7.68-18.432 7.68s-13.312-2.56-18.432-7.68L370.688 348.672c-10.24-10.24-9.728-26.624 0.512-36.864 5.12-4.608 11.264-7.68 18.432-7.68 6.656 0 13.312 2.56 18.432 7.68l139.264 139.264 256-256c4.608-4.608 5.632-11.264 2.56-16.896-9.216-16.896-27.136-28.16-48.128-28.16H266.752c-30.208 0-54.784 24.576-54.784 54.784v615.424c0 30.208 24.576 54.784 54.784 54.784h490.496c30.208 0 54.784-24.576 54.784-54.784V294.4c0-12.8-15.872-19.456-24.576-10.24L565.248 506.368z" fill="#586069" p-id="8492"></path></svg>