<?xml version="1.0" standalone="no"?><!DOCTYPE svg PUBLIC "-//W3C//DTD SVG 1.1//EN" "http://www.w3.org/Graphics/SVG/1.1/DTD/svg11.dtd"><svg t="1561365591641" class="icon" viewBox="0 0 1024 1024" version="1.1" xmlns="http://www.w3.org/2000/svg" p-id="5788" width="64" height="64" xmlns:xlink="http://www.w3.org/1999/xlink"><defs><style type="text/css"></style></defs><path d="M219.37152 188.98944c9.56416 5.39648 8.69376 7.51616-1.92512 4.73088l-76.50304-20.11136c-10.61888-2.79552-23.94112 2.6112-29.61408 12.02176L71.19872 252.2112c-5.67296 9.40032-7.90528 8.43776-4.97664-2.14016l20.75648-75.03872c2.92864-10.57792-2.44736-23.72608-11.95008-29.22496L6.5536 106.15808c-9.50272-5.49888-8.54016-7.89504 2.12992-5.3248l75.58144 18.23744c10.67008 2.57024 24.17664-2.93888 30.0032-12.2368l40.28416-64.256c5.8368-9.30816 8.09984-8.30464 5.03808 2.2528l-21.99552 75.71456c-3.06176 10.53696 2.2528 23.58272 11.81696 28.96896l69.95968 39.4752z" fill="#FA811B" p-id="5789"></path><path d="M840.18176 961.64864c2.11968 8.54016 0.37888 9.216-3.88096 1.536l-13.70112-24.6784c-4.25984-7.68-14.75584-12.38016-23.31648-10.45504l-28.11904 6.33856c-8.58112 1.92512-9.23648 0.14336-1.4848-3.98336l25.51808-13.55776c7.76192-4.11648 12.46208-14.47936 10.4448-23.04l-6.52288-27.46368c-2.01728-8.56064-0.06144-9.33888 4.36224-1.7408l13.84448 23.79776c4.44416 7.59808 15.08352 12.3392 23.68512 10.55744l27.25888-5.66272c8.6016-1.78176 9.25696 0.04096 1.44384 4.07552l-26.14272 13.45536c-7.82336 4.02432-12.46208 14.2848-10.3424 22.80448l6.95296 28.01664z" fill="#FA811B" p-id="5790"></path><path d="M1023.49824 391.03488c-4.17792-13.94688-18.7392-39.46496-32.33792-56.68864l-101.95968-129.11616c-13.6192-17.22368-36.13696-39.19872-50.06336-48.82432-13.93664-9.61536-71.40352-17.47968-93.35808-17.47968H412.12928c-21.9648 0-54.39488 3.44064-72.06912 7.65952-17.68448 4.21888-59.94496 40.05888-74.24 56.71936L151.73632 336.26112c-14.29504 16.66048-29.73696 41.49248-34.32448 55.17312s18.15552 58.14272 31.6928 75.42784l355.9936 454.74816c13.5168 17.28512 36.79232 44.61568 51.67104 60.76416 0 0 5.03808 5.43744 13.49632 5.43744 8.4992 0 14.60224-6.16448 14.60224-6.16448 15.4624-15.57504 39.15776-42.51648 52.64384-59.84256l353.86368-454.656c13.48608-17.33632 36.28032-62.16704 32.12288-76.11392z m-136.31488-46.88896c13.59872 17.24416 6.77888 31.34464-15.17568 31.34464H743.936c-21.9648 0-38.0416-1.91488-35.7376-4.2496 2.304-2.33472 16.78336-26.05056 27.76064-45.056l37.03808-64.11264c10.99776-19.01568 21.46304-33.30048 23.25504-31.744 1.80224 1.54624 16.78336 19.94752 30.40256 37.18144l60.52864 76.63616z m-205.54752-6.01088c-7.49568-5.30432-22.1184-25.48736-32.48128-44.8512l-26.12224-48.8448-18.92352-35.42016c-0.06144-0.1024 17.77664-0.39936 39.72096-0.39936h56.13568c21.9648 0 44.73856 0.59392 50.61632 1.30048 5.89824 0.7168 12.17536 21.10464 1.1776 40.11008l-25.72288 44.51328c-10.9568 19.01568-36.87424 48.90624-44.40064 43.59168zM404.9408 209.60256c5.16096-0.54272 27.3408-0.9728 49.29536-0.9728h59.8016c21.97504 0 39.89504 0.07168 39.85408 0.1536l-20.16256 34.8672-28.99968 50.19648c-10.99776 19.00544-26.2144 38.66624-33.82272 43.68384-7.59808 5.00736-32.36864-25.55904-42.72128-44.93312l-23.28576-43.55072c-10.33216-19.36384-5.10976-38.92224 0.04096-39.44448z m86.03648 156.71296c2.10944-3.06176 12.82048-21.12512 23.808-40.1408l43.61216-75.48928c10.97728-18.9952 28.43648-18.71872 38.79936 0.64512l39.13728 73.22624c10.36288 19.36384 20.5824 37.888 22.6816 41.17504 2.11968 3.28704-9.65632 9.74848-31.62112 9.74848H522.76224c-21.95456 0-33.8944-6.0928-31.78496-9.1648z m-165.94944-100.53632c14.29504-16.67072 27.53536-31.82592 29.41952-33.6896 1.87392-1.87392 16.32256 9.40032 26.66496 28.76416l34.06848 63.71328c10.35264 19.36384 20.56192 37.888 22.67136 41.17504 2.12992 3.28704-9.65632 9.74848-31.62112 9.74848H270.81728c-21.95456 0-28.22144-13.62944-13.9264-30.28992l68.13696-79.42144z m371.41504 465.21344c-13.47584 17.33632-19.49696 14.26432-13.3632-6.81984l47.38048-162.64192c6.144-21.07392 1.46432-41.0624-10.40384-44.41088-11.8784-3.34848-26.624 11.1616-32.75776 32.24576l-78.5408 269.58848c-6.144 21.08416-20.96128 47.21664-32.9216 58.08128h-10.36288c-10.86464-8.54016-24.7808-32.79872-30.9248-53.88288l-79.74912-273.78688c-6.15424-21.08416-20.86912-35.59424-32.74752-32.24576-11.85792 3.34848-16.55808 23.3472-10.41408 44.41088L460.8 730.23488c6.144 21.08416 0.17408 24.1152-13.27104 6.73792L243.72224 473.67168c-13.44512-17.36704-26.34752-35.1744-28.69248-39.55712-2.34496-4.39296-4.20864-17.09056-3.84-17.08032 0.36864 0.01024 19.31264 0.02048 41.27744 0.02048H888.1152l40.6016-0.01024c0.3584 0 0.5632 4.08576-0.3584 9.10336-0.94208 5.0176-18.23744 30.28992-31.72352 47.616l-200.192 257.2288z" fill="#FA811B" p-id="5791"></path></svg>