<svg xmlns="http://www.w3.org/2000/svg" xmlns:xlink="http://www.w3.org/1999/xlink" width="64" height="64"><path d="M 32 5 C 46.912 5 59 17.088 59 32 C 59 46.912 46.912 59 32 59 C 17.088 59 5 46.912 5 32 C 5 17.088 17.088 5 32 5 Z" fill="rgba(255, 162, 0, 1.00)"></path><path d="M 32 3.291 L 63.35 38.449 C 63.35 38.449 62.295 42.542 61.485 44.456 C 59.866 48.284 57.523 51.732 54.627 54.627 C 51.732 57.523 48.284 59.866 44.456 61.485 C 40.627 63.105 36.418 64 32 64 C 29.791 64 27.634 63.776 25.551 63.35 C 24.509 63.137 18.926 61.257 18.926 61.257 L 8.777 49.92" fill="#E69100"></path><g><defs><path d="M 32 0 C 49.673 0 64 14.327 64 32 C 64 49.673 49.673 64 32 64 C 14.327 64 0 49.673 0 32 C 0 14.327 14.327 0 32 0 Z" id="shape_id_lNYZa_B1h"></path><clipPath id="shape_id_lNYZa_B1h_clip"><use xlink:href="#shape_id_lNYZa_B1h"></use></clipPath></defs><use xlink:href="#shape_id_lNYZa_B1h" fill="transparent" clip-path="url(#shape_id_lNYZa_B1h_clip)" stroke-width="12" stroke="rgba(255, 195, 0, 1.00)"></use></g><g transform="translate(8.777 3.291)"><path d="M 23.314 0 L 0 46.629 L 46.629 46.629 Z" fill="rgba(255, 195, 0, 1.00)"></path><path d="M 23.314 9.856 L 36.455 36.137 L 18.861 36.137 L 20.804 32.251 L 30.167 32.251 L 23.314 18.543 L 12.575 40.023 L 38.398 40.023 L 40.341 43.908 L 6.288 43.908 Z" fill="#FFFFFF"></path></g></svg>