<?xml version="1.0" standalone="no"?><!DOCTYPE svg PUBLIC "-//W3C//DTD SVG 1.1//EN" "http://www.w3.org/Graphics/SVG/1.1/DTD/svg11.dtd"><svg t="1561025134359" class="icon" viewBox="0 0 1024 1024" version="1.1" xmlns="http://www.w3.org/2000/svg" p-id="5075" xmlns:xlink="http://www.w3.org/1999/xlink" width="48" height="48"><defs><style type="text/css"></style></defs><path d="M765.5 837.3H249.2c-52.2 0-93.4-44.1-90.1-96.1l32.3-494c3.1-47.4 42.5-84.4 90.1-84.4h452.1c47.6 0 87 37 90.1 84.4l32 494c3.3 52-38 96.1-90.2 96.1z" fill="#FFA820" p-id="5076"></path><path d="M824.7 263.9l-1-16.7c-3-47.4-42.5-84.4-90.1-84.4h-15.2c41.2 27 77.3 61.3 106.3 101.1zM159.7 732.1l-0.6 9c-3.4 52.1 37.9 96.1 90.1 96.1h14.7c-40.8-28.3-76.2-64-104.2-105.1zM272.7 163.2c-38.1 3.7-69.6 31-78.9 67.7 23.4-25.8 49.9-48.6 78.9-67.7zM855.6 741.1l-2.8-42.9c-30.4 55.5-73.3 103.1-125 139h37.6c52.3 0.1 93.6-44 90.2-96.1z" fill="#FEAC33" p-id="5077"></path><path d="M337.2 162.8h-55.8c-2.9 0-5.8 0.1-8.6 0.4-29.1 19.2-55.6 41.9-78.9 67.7-1.4 5.2-2.2 10.7-2.6 16.3l-2.5 38.5c36.9-53.7 88.2-96.5 148.4-122.9zM852.9 698.2l-28.2-434.3c-29-39.8-65-74-106.3-101.1H619C742.6 217 828.9 340.4 828.9 484.1c0 193.8-157 350.8-350.8 350.8-136.4 0-254.6-77.8-312.6-191.5l-5.8 88.8c28 41.1 63.4 76.8 104.1 105.2h464.1c51.6-36 94.6-83.7 125-139.2z" fill="#FEB133" p-id="5078"></path><path d="M478.1 834.8c193.8 0 350.8-157 350.8-350.8 0-143.6-86.3-267.1-209.9-321.3H337.2c-60.2 26.4-111.5 69.2-148.4 122.9l-5 76.6C225.5 250 333.5 170 460.2 170 623.1 170 755 302 755 464.8S623 759.6 460.2 759.6c-140.2 0-257.5-97.8-287.4-229l-7.3 112.6c58 113.8 176.1 191.6 312.6 191.6z" fill="#FEB633" p-id="5079"></path><path d="M460.3 759.7c162.9 0 294.8-132 294.8-294.8S623.2 170 460.3 170c-126.7 0-234.7 79.9-276.4 192.2l-11 168.4c29.9 131.3 147.2 229.1 287.4 229.1z m-17.8-552.9c132 0 238.9 106.9 238.9 238.9s-107 238.9-238.9 238.9-238.9-106.9-238.9-238.9 106.9-238.9 238.9-238.9z" fill="#FFBC34" p-id="5080"></path><path d="M442.5 684.6c132 0 238.9-106.9 238.9-238.9s-107-238.9-238.9-238.9-238.9 106.9-238.9 238.9 106.9 238.9 238.9 238.9z m-17.9-441.1c101.1 0 183 81.9 183 183s-81.9 183-183 183-183-81.9-183-183 82-183 183-183z" fill="#FFC134" p-id="5081"></path><path d="M424.6 609.4c101.1 0 183-81.9 183-183s-81.9-183-183-183-183 81.9-183 183 82 183 183 183z m-17.8-329.1c70.2 0 127 56.9 127 127s-56.9 126.9-127 126.9-126.9-56.9-126.9-127 56.8-126.9 126.9-126.9z" fill="#FFC634" p-id="5082"></path><path d="M406.8 407.2m-127 0a127 127 0 1 0 254 0 127 127 0 1 0-254 0Z" fill="#FFCB34" p-id="5083"></path><path d="M765.5 846.3H249.2c-27.7 0-53.4-11.1-72.4-31.4-19-20.2-28.5-46.7-26.7-74.4l32.3-494c3.4-52.1 47-92.8 99.1-92.8h452.1c52.2 0 95.7 40.8 99.1 92.8l32 494c1.8 27.7-7.7 54.1-26.7 74.3-19 20.3-44.7 31.5-72.5 31.5zM281.4 171.7c-42.6 0-78.3 33.4-81.1 76l-32.3 494c-1.5 22.7 6.3 44.3 21.8 60.9s36.6 25.7 59.2 25.7h516.3c22.7 0 43.8-9.1 59.4-25.7 15.5-16.6 23.3-38.2 21.8-60.8l-32-494c-2.7-42.6-38.3-76-81.1-76h-452z" fill="#FFA820" p-id="5084"></path><path d="M746.2 270.5c0-23.7-19.2-42.8-42.8-42.8-23.7 0-42.8 19.2-42.8 42.8 0 13.9 6.6 26.3 16.9 34-24.6 57.5-91.5 98.8-170 98.8s-145.4-41.3-170-98.8c10.3-7.9 16.9-20.2 16.9-34 0-23.7-19.2-42.8-42.8-42.8-23.7 0-42.8 19.2-42.8 42.8 0 20.4 14.2 37.5 33.3 41.8 10.5 27.8 28.8 53.2 54 74.3 40.6 33.9 94.5 52.6 151.6 52.6s110.9-18.6 151.6-52.6c25.2-21.1 43.6-46.5 54-74.3 18.7-4.4 32.9-21.5 32.9-41.8z" fill="#FFE3B4" p-id="5085"></path><path d="M262.1 380.4l-6.3 124c-0.5 9.9-9 17.6-18.9 17.1s-17.6-9-17.1-18.9l6.3-124c0.5-9.9 9-17.6 18.9-17.1 10 0.5 17.6 9 17.1 18.9zM252.7 564.2l-0.5 10.5c-0.5 9.9-9 17.6-18.9 17.1s-17.6-9-17.1-18.9l0.5-10.5c0.5-9.9 9-17.6 18.9-17.1 10 0.5 17.6 9 17.1 18.9z" fill="#FFFFFF" p-id="5086"></path></svg>