<svg xmlns="http://www.w3.org/2000/svg" width="42" height="42"><path d="M 20.769 6.075 L 21.681 6.647 L 19.167 11.492 L 18.255 10.92 Z M 38.204 37.23 L 38.204 38.386 L 7.004 38.386 L 10.9 29.914 L 11.708 30.487 L 8.607 37.23 Z" fill="rgb(138,138,138)"></path><path d="M 21.886 6.201 C 23.142 6.201 24.16 5.08 24.16 3.699 C 24.16 2.317 23.142 1.197 21.886 1.197 C 20.63 1.197 19.612 2.317 19.612 3.699 C 19.612 5.08 20.63 6.201 21.886 6.201 Z M 21.886 7.356 C 20.699 7.356 19.601 6.659 19.008 5.527 C 18.414 4.396 18.414 3.002 19.008 1.87 C 19.601 0.738 20.699 0.041 21.886 0.042 C 23.722 0.042 25.209 1.679 25.209 3.699 C 25.209 5.719 23.722 7.356 21.886 7.356 Z M 4.396 40.845 C 6.038 40.845 7.369 39.38 7.369 37.573 C 7.369 35.767 6.038 34.301 4.396 34.301 C 2.753 34.301 1.422 35.767 1.422 37.573 C 1.422 39.38 2.753 40.845 4.396 40.845 Z M 4.396 42 C 2.174 42 0.373 40.018 0.373 37.573 C 0.373 35.128 2.174 33.147 4.396 33.147 C 6.617 33.147 8.419 35.128 8.419 37.573 C 8.419 40.018 6.617 42 4.396 42 Z M 39.377 39.69 C 40.246 39.69 40.951 38.915 40.951 37.958 C 40.951 37.002 40.246 36.226 39.377 36.226 C 38.508 36.226 37.803 37.002 37.803 37.958 C 37.803 38.915 38.508 39.69 39.377 39.69 Z M 39.377 40.845 C 37.928 40.845 36.753 39.552 36.753 37.958 C 36.753 36.363 37.928 35.071 39.377 35.071 C 40.826 35.071 42 36.363 42 37.958 C 42 39.552 40.826 40.845 39.377 40.845 Z" id="id_LwVjkCkPM" fill="rgb(138,138,138)"></path><path d="M 21.182 24.304 C 19.128 24.304 17.23 22.894 16.218 20.663 C 15.166 20.812 14.276 19.712 14.276 18.282 C 14.276 17.165 14.804 16.254 15.547 15.975 C 15.978 12.458 18.335 9.868 21.187 9.868 C 24.038 9.868 26.401 12.463 26.826 15.975 C 27.565 16.254 28.098 17.171 28.098 18.282 C 28.098 19.717 27.168 20.807 26.156 20.657 C 25.138 22.894 23.241 24.304 21.182 24.304 Z M 16.525 19.323 C 16.579 19.323 16.633 19.327 16.691 19.347 C 16.863 19.402 16.999 19.531 17.064 19.701 C 17.831 21.788 19.45 23.143 21.187 23.143 C 22.928 23.143 24.542 21.793 25.31 19.701 C 25.377 19.526 25.515 19.395 25.682 19.347 C 25.853 19.293 26.038 19.326 26.185 19.437 C 26.254 19.487 26.313 19.511 26.352 19.511 C 26.596 19.511 26.958 19.033 26.958 18.282 C 26.958 17.579 26.646 17.111 26.401 17.051 C 26.366 17.056 26.337 17.06 26.303 17.06 C 26.004 17.06 25.755 16.826 25.736 16.522 C 25.511 13.389 23.559 11.028 21.187 11.028 C 18.814 11.028 16.858 13.389 16.638 16.522 C 16.614 16.842 16.34 17.081 16.026 17.06 C 16.011 17.06 15.993 17.056 15.973 17.056 C 15.733 17.116 15.416 17.579 15.416 18.286 C 15.416 19.039 15.772 19.517 16.022 19.517 C 16.061 19.517 16.124 19.486 16.193 19.437 C 16.291 19.362 16.408 19.323 16.525 19.323 Z" fill="rgb(138,138,138)"></path><path d="M 21.221 35.259 L 10.681 35.259 C 10.519 35.259 10.363 35.189 10.255 35.064 C 8.847 33.46 9.604 30.845 9.638 30.735 C 11.473 26.785 16.746 24.807 18.291 24.304 L 18.291 22.994 C 18.291 22.675 18.545 22.416 18.863 22.416 C 19.176 22.416 19.436 22.675 19.436 22.994 L 19.436 24.738 C 19.436 24.997 19.264 25.226 19.02 25.295 C 18.951 25.315 12.569 27.164 10.705 31.149 C 10.71 31.149 10.211 32.962 10.964 34.093 L 21.231 34.093 C 21.544 34.093 21.803 34.352 21.803 34.676 C 21.788 34.999 21.534 35.259 21.221 35.259 Z" fill="rgb(138,138,138)"></path><path d="M 31.727 35.259 L 21.182 35.259 C 20.869 35.259 20.61 34.999 20.61 34.68 C 20.61 34.362 20.864 34.098 21.182 34.098 L 31.448 34.098 C 32.206 32.962 31.683 31.094 31.678 31.074 C 29.849 27.169 23.461 25.32 23.397 25.301 C 23.153 25.23 22.982 25.002 22.982 24.743 L 22.982 22.998 C 22.982 22.681 23.236 22.422 23.554 22.422 C 23.867 22.422 24.122 22.681 24.122 22.998 L 24.122 24.309 C 25.662 24.812 30.93 26.775 32.74 30.656 C 32.803 30.845 33.556 33.46 32.153 35.064 C 32.04 35.189 31.887 35.259 31.727 35.259 Z M 12.035 23.298 C 10.577 23.298 9.232 22.331 8.489 20.787 L 8.455 20.787 C 7.677 20.787 7.071 19.98 7.071 18.949 C 7.071 18.153 7.438 17.485 7.966 17.23 C 8.304 14.76 9.996 12.946 12.03 12.946 C 13.85 12.946 15.435 14.411 15.973 16.587 C 16.046 16.897 15.865 17.215 15.557 17.295 C 15.244 17.365 14.94 17.181 14.862 16.872 C 14.457 15.218 13.317 14.107 12.03 14.107 C 10.509 14.107 9.203 15.706 9.057 17.749 C 9.042 17.91 8.968 18.057 8.851 18.157 C 8.736 18.257 8.591 18.303 8.445 18.287 C 8.377 18.336 8.215 18.566 8.215 18.955 C 8.215 19.378 8.406 19.612 8.465 19.632 C 8.607 19.522 8.797 19.482 8.969 19.531 C 9.14 19.587 9.282 19.706 9.346 19.876 C 9.849 21.251 10.906 22.143 12.035 22.143 C 13.165 22.143 14.222 21.251 14.725 19.876 C 14.793 19.7 14.93 19.569 15.098 19.522 C 15.268 19.471 15.449 19.504 15.596 19.612 C 15.845 19.408 16.218 19.453 16.418 19.701 C 16.614 19.951 16.594 20.319 16.349 20.518 C 16.119 20.708 15.88 20.818 15.576 20.792 C 14.838 22.326 13.493 23.298 12.035 23.298 Z" fill="rgb(138,138,138)"></path><path d="M 10.504 30.88 L 4.762 30.88 C 4.601 30.88 4.445 30.811 4.337 30.686 C 3.295 29.5 3.848 27.597 3.872 27.518 C 5.134 24.797 8.636 23.407 9.854 22.989 L 9.854 22.207 C 9.854 21.888 10.108 21.624 10.426 21.624 C 10.74 21.624 10.999 21.883 10.999 22.207 L 10.999 23.412 C 10.999 23.671 10.827 23.9 10.583 23.97 C 10.539 23.98 6.19 25.241 4.938 27.926 C 4.87 28.19 4.723 29.106 5.061 29.709 L 10.515 29.709 C 10.827 29.709 11.087 29.968 11.087 30.292 C 11.072 30.62 10.818 30.88 10.504 30.88 Z M 17.455 25.809 C 17.342 25.809 17.23 25.774 17.131 25.704 C 15.464 24.533 13.542 23.986 13.523 23.981 C 13.278 23.911 13.106 23.682 13.106 23.422 L 13.106 22.217 C 13.106 21.898 13.361 21.634 13.679 21.634 C 13.992 21.634 14.251 21.893 14.251 22.217 L 14.251 22.999 C 14.955 23.238 16.433 23.806 17.787 24.752 C 18.047 24.932 18.115 25.295 17.934 25.559 C 17.818 25.719 17.641 25.811 17.455 25.809 Z M 30.348 23.298 C 28.89 23.298 27.545 22.331 26.802 20.787 C 26.525 20.791 26.255 20.695 26.034 20.514 C 25.789 20.314 25.745 19.951 25.94 19.697 C 26.132 19.442 26.498 19.402 26.743 19.596 C 26.89 19.487 27.095 19.458 27.266 19.507 C 27.437 19.557 27.599 19.692 27.658 19.86 C 28.162 21.236 29.223 22.127 30.348 22.127 C 31.473 22.127 32.534 21.241 33.038 19.86 C 33.106 19.688 33.241 19.558 33.405 19.507 C 33.576 19.453 33.76 19.485 33.909 19.592 C 33.909 19.562 34.168 19.368 34.168 18.939 C 34.168 18.55 34.011 18.321 33.933 18.272 C 33.788 18.287 33.643 18.24 33.527 18.142 C 33.407 18.046 33.332 17.896 33.322 17.733 C 33.175 15.691 31.869 14.092 30.343 14.092 C 29.056 14.092 27.917 15.203 27.506 16.852 C 27.433 17.161 27.13 17.344 26.816 17.275 C 26.513 17.195 26.322 16.882 26.4 16.573 C 26.934 14.396 28.519 12.932 30.343 12.932 C 32.378 12.932 34.07 14.744 34.408 17.216 C 34.936 17.474 35.303 18.137 35.303 18.935 C 35.303 19.96 34.696 20.772 33.918 20.772 L 33.884 20.772 C 33.146 22.326 31.806 23.298 30.348 23.298 Z" fill="rgb(138,138,138)"></path><path d="M 37.621 30.88 L 31.879 30.88 C 31.566 30.88 31.307 30.621 31.307 30.302 C 31.307 29.983 31.561 29.719 31.879 29.719 L 37.333 29.719 C 37.67 29.117 37.518 28.19 37.421 27.851 C 36.198 25.25 31.855 23.99 31.81 23.981 C 31.566 23.911 31.389 23.682 31.389 23.422 L 31.389 22.217 C 31.389 21.898 31.644 21.634 31.962 21.634 C 32.28 21.634 32.534 21.893 32.534 22.217 L 32.534 22.999 C 33.752 23.407 37.244 24.793 38.482 27.442 C 38.535 27.602 39.084 29.505 38.047 30.69 C 37.933 30.814 37.78 30.882 37.621 30.88 Z M 24.929 25.809 C 24.748 25.809 24.572 25.719 24.459 25.559 C 24.283 25.295 24.347 24.932 24.606 24.752 C 25.961 23.801 27.438 23.238 28.142 22.999 L 28.142 22.217 C 28.142 21.898 28.396 21.634 28.714 21.634 C 29.027 21.634 29.287 21.893 29.287 22.217 L 29.287 23.423 C 29.287 23.682 29.116 23.91 28.872 23.981 C 28.852 23.986 26.92 24.538 25.256 25.704 C 25.153 25.773 25.036 25.809 24.929 25.809 Z" fill="rgb(138,138,138)"></path><path d="M 18.718 19.097 C 18.718 18.778 18.954 18.519 19.243 18.519 C 19.533 18.519 19.767 18.778 19.767 19.097 C 19.767 19.826 20.392 20.443 21.187 20.443 C 21.981 20.443 22.606 19.826 22.606 19.097 C 22.606 18.89 22.706 18.699 22.868 18.596 C 23.03 18.493 23.23 18.493 23.393 18.596 C 23.555 18.699 23.655 18.89 23.655 19.097 C 23.655 20.493 22.538 21.599 21.187 21.599 C 19.835 21.599 18.718 20.493 18.718 19.097 Z" fill="rgb(138,138,138)"></path></svg>