<?xml version="1.0" standalone="no"?><!DOCTYPE svg PUBLIC "-//W3C//DTD SVG 1.1//EN" "http://www.w3.org/Graphics/SVG/1.1/DTD/svg11.dtd"><svg t="1564636767269" class="icon" viewBox="0 0 1131 1024" version="1.1" xmlns="http://www.w3.org/2000/svg" p-id="23001" xmlns:xlink="http://www.w3.org/1999/xlink" width="70.6875" height="64"><defs><style type="text/css"></style></defs><path d="M1077.894737 538.947368v350.31579c0 43.115789-35.031579 80.842105-80.842105 80.842105H134.736842c-45.810526 0-80.842105-35.031579-80.842105-80.842105V538.947368h1024m53.894737-53.894736H0v404.210526c0 75.452632 59.284211 134.736842 134.736842 134.736842h862.31579c75.452632 0 134.736842-59.284211 134.736842-134.736842V485.052632zM277.557895 485.052632c-16.168421-37.726316-24.252632-78.147368-24.252632-121.263158C253.305263 191.326316 393.431579 51.2 565.894737 51.2s312.589474 140.126316 312.589474 312.589474c0 43.115789-8.084211 83.536842-24.252632 121.263158h56.589474c13.473684-37.726316 21.557895-78.147368 21.557894-121.263158C929.684211 164.378947 765.305263 0 565.894737 0S202.105263 164.378947 202.105263 363.789474c0 43.115789 8.084211 83.536842 21.557895 121.263158h53.894737z" fill="#8a8a8a" p-id="23002"></path><path d="M0 242.526316v188.631579h53.894737v-134.736842h188.631579V242.526316zM889.263158 242.526316v53.894737h188.631579v134.736842h53.894737V242.526316zM711.410526 164.378947c10.778947-10.778947 10.778947-26.947368 0-37.726315-10.778947-10.778947-26.947368-10.778947-37.726315 0l-107.789474 113.178947-110.484211-110.484211c-10.778947-10.778947-26.947368-10.778947-37.726315 0-10.778947 10.778947-10.778947 26.947368 0 37.726316l110.48421 110.484211h-118.568421v53.894737H538.947368v40.421052h-129.347368v53.894737H538.947368V512c0 13.473684 10.778947 26.947368 26.947369 26.947368s26.947368-10.778947 26.947368-26.947368v-86.231579h129.347369v-53.894737H592.842105v-40.421052h129.347369v-53.894737h-118.568421l107.789473-113.178948z" fill="#8a8a8a" p-id="23003"></path></svg>