<?xml version="1.0" standalone="no"?><!DOCTYPE svg PUBLIC "-//W3C//DTD SVG 1.1//EN" "http://www.w3.org/Graphics/SVG/1.1/DTD/svg11.dtd"><svg t="1564634189099" class="icon" viewBox="0 0 1024 1024" version="1.1" xmlns="http://www.w3.org/2000/svg" p-id="10191" xmlns:xlink="http://www.w3.org/1999/xlink" width="64" height="64"><defs><style type="text/css"></style></defs><path d="M779.434667 165.546667H246.442667c-63.658667 0-115.541333 51.882667-115.541334 115.541333v355.328c0 63.658667 51.882667 115.541333 115.541334 115.541333h532.992c63.658667 0 115.541333-51.882667 115.541333-115.541333V281.088c0-63.658667-51.882667-115.541333-115.541333-115.541333z m62.122666 470.869333c0 34.304-27.818667 62.122667-62.122666 62.122667H246.442667c-34.304 0-62.122667-27.818667-62.122667-62.122667V281.088c0-34.304 27.818667-62.122667 62.122667-62.122667h532.992c34.304 0 62.122667 27.818667 62.122666 62.122667v355.328zM699.392 805.205333H326.314667c-14.677333 0-26.624 11.946667-26.624 26.624s11.946667 26.624 26.624 26.624h373.077333c14.677333 0 26.624-11.946667 26.624-26.624s-11.776-26.624-26.624-26.624z" fill="#8a8a8a" p-id="10192"></path><path d="M366.421333 359.936c-10.410667-10.410667-27.306667-10.410667-37.717333 0l-64.853333 64.853333c-18.773333 18.773333-18.773333 49.322667 0 67.925334l64.853333 64.853333c5.12 5.12 11.946667 7.850667 18.773333 7.850667s13.653333-2.56 18.773334-7.850667c10.410667-10.410667 10.410667-27.306667 0-37.717333l-61.098667-61.098667 61.098667-61.098667c10.581333-10.410667 10.581333-27.306667 0.170666-37.717333zM695.637333 359.936c-10.410667-10.410667-27.306667-10.410667-37.717333 0-10.410667 10.410667-10.410667 27.306667 0 37.717333l61.098667 61.098667-61.098667 61.098667c-10.410667 10.410667-10.410667 27.306667 0 37.717333 5.12 5.12 11.946667 7.850667 18.773333 7.850667s13.653333-2.56 18.773334-7.850667l64.853333-64.853333c18.773333-18.773333 18.773333-49.322667 0-67.925334l-64.682667-64.853333zM543.744 290.304c-14.506667-2.730667-28.330667 6.826667-31.061333 21.333333l-53.248 284.330667c-2.730667 14.506667 6.826667 28.330667 21.333333 31.061333 1.706667 0.341333 3.242667 0.512 4.949333 0.512 12.629333 0 23.722667-8.874667 26.112-21.674666l53.248-284.330667c2.730667-14.506667-6.826667-28.501333-21.333333-31.232z" fill="#8a8a8a" p-id="10193"></path></svg>