<?xml version="1.0" standalone="no"?><!DOCTYPE svg PUBLIC "-//W3C//DTD SVG 1.1//EN" "http://www.w3.org/Graphics/SVG/1.1/DTD/svg11.dtd"><svg t="1564635816487" class="icon" viewBox="0 0 1448 1024" version="1.1" xmlns="http://www.w3.org/2000/svg" p-id="15165" xmlns:xlink="http://www.w3.org/1999/xlink" width="90.5" height="64"><defs><style type="text/css"></style></defs><path d="M1176.999908 957.916728H273.98858c-27.137903 0-46.835934-28.410853-46.835934-67.569526v-4.143966l51.623256-154.63582c1.417446-36.865645 20.637261-63.176131 46.753364-63.176131h205.849667v50.931735H332.389431c-1.333156 3.387077-2.764364 9.134271-2.764364 16.637792v4.143966l-51.415112 154.013106c0.373284 5.664624 1.541301 10.071781 2.63879 12.865389H1170.132862c1.186939-3.012073 2.446127-7.918089 2.707598-14.260472l-32.002634-156.761989c0-7.50352-1.436368-13.250714-2.762644-16.637792H844.613917v-50.931735h300.33003c26.487667 0 45.889823 27.082857 46.80153 64.791401l32.083484 157.162796c0 39.160394-19.68943 67.571246-46.829053 67.571246z" fill="#8a8a8a" p-id="15166"></path><path d="M628.947058 813.562555L358.242344 575.522752c-11.9382-10.48807-19.068437-25.010014-20.090237-40.858233-1.016639-15.863701 4.200733-31.173497 14.693963-43.111698L706.989173 88.805417c21.65218-24.629849 59.319438-27.075976 83.983692-5.410034l301.172929 264.838827c24.63673 21.638418 27.067375 59.312558 5.428957 83.96993L764.265012 811.254044l-38.246967-33.633385 333.297698-379.034423c3.110125-3.543616 2.750603-8.974293-0.801614-12.096459L757.3412 121.65095c-3.524693-3.096363-8.969132-2.764364-12.10506 0.793013L391.101638 525.184487a8.551123 8.551123 0 0 0-2.114128 6.203047 8.533921 8.533921 0 0 0 2.888219 5.886531l270.702995 238.039803-33.631666 38.248687z" fill="#8a8a8a" p-id="15167"></path><path d="M945.304209 820.802884H414.826661l18.204896-46.041201H931.33445zM622.554789 463.723397l77.732478 83.708459 158.47531-161.46158 23.919406 26.917718-182.394716 185.377545-104.648476-107.626145z" fill="#8a8a8a" p-id="15168"></path></svg>