<?xml version="1.0" standalone="no"?><!DOCTYPE svg PUBLIC "-//W3C//DTD SVG 1.1//EN" "http://www.w3.org/Graphics/SVG/1.1/DTD/svg11.dtd"><svg t="1540608578941" class="icon" style="" viewBox="0 0 1024 1024" version="1.1" xmlns="http://www.w3.org/2000/svg" p-id="1901" xmlns:xlink="http://www.w3.org/1999/xlink" width="32" height="32"><defs><style type="text/css"></style></defs><path d="M512 85.333333C276.352 85.333333 85.333333 276.352 85.333333 512s191.018667 426.666667 426.666667 426.666667 426.666667-191.018667 426.666667-426.666667S747.648 85.333333 512 85.333333zM754.581333 436.288 513.216 677.653333c-22.208 22.208-58.24 22.208-80.448 0l-120.682667-120.682667c-22.208-22.208-22.208-58.24 0-80.448s58.24-22.208 80.448 0l80.448 80.469333L674.133333 355.84c22.208-22.208 58.24-22.208 80.448 0C776.789333 378.048 776.789333 414.08 754.581333 436.288z" p-id="1902" fill="#FFC300"></path></svg>