<?xml version="1.0" standalone="no"?><!DOCTYPE svg PUBLIC "-//W3C//DTD SVG 1.1//EN" "http://www.w3.org/Graphics/SVG/1.1/DTD/svg11.dtd"><svg t="1538015399038" class="icon" style="" viewBox="0 0 1024 1024" version="1.1" xmlns="http://www.w3.org/2000/svg" p-id="1935" xmlns:xlink="http://www.w3.org/1999/xlink" width="48" height="48"><defs><style type="text/css"></style></defs><path d="M511.6 64.2c-246.2 0-448 200.4-448 448 0 246.2 200.4 448 448 448s448-200.4 448-448c0-246.2-200.4-448-448-448z m0 829.8c-209.9 0-381.8-171.9-381.8-381.8s171.9-380.4 381.8-380.4S892 302.3 892 512.2c0 210-170.5 381.8-380.4 381.8z m0 0" p-id="1936" fill="#FA811B"></path><path d="M728.3 579.8l-185.5-62.1V252.4c0-19-16.3-35.4-35.4-35.4-19 0-35.4 16.3-35.4 35.4v289.8c-1.4 13.6 6.8 25.8 20.4 32.6l205.9 68.9c5.4 1.4 9.5 2.7 15 2.7 4.1 0 8.2 0 13.6-1.4 8.2-2.7 15-9.5 19-17.7 4.1-9.5 4.1-19 1.4-27.2-3.1-9.4-9.5-16.2-19-20.3z m0 0" p-id="1937" fill="#FA811B"></path></svg>